# Blender v3.2.0 OBJ File: 'assets.blend'
# www.blender.org
mtllib garden.mtl
o Plane.002_Plane.023
v 0.000000 0.000000 0.000000
v 20.000000 0.000000 0.000000
v 0.000000 0.000000 -20.000000
v 20.000000 0.000000 -20.000000
vt -0.500000 -0.500000
vt 1.500000 -0.500000
vt 1.500000 1.500000
vt -0.500000 1.500000
vn 0.0000 1.0000 0.0000
usemtl Grass.011
s off
f 1/1/1 2/2/1 4/3/1 3/4/1
o Plane.007_Plane.024
v 0.000000 0.000000 20.000000
v 20.000000 0.000000 20.000000
v 0.000000 0.000000 0.000000
v 20.000000 0.000000 0.000000
vt -0.500000 -0.500000
vt 1.500000 -0.500000
vt 1.500000 1.500000
vt -0.500000 1.500000
vn 0.0000 1.0000 0.0000
usemtl Grass.011
s off
f 5/5/2 6/6/2 8/7/2 7/8/2
o Plane.008_Plane.025
v -20.000000 0.000000 20.000000
v 0.000000 0.000000 20.000000
v -20.000000 0.000000 0.000000
v 0.000000 0.000000 0.000000
vt -0.500000 -0.500000
vt 1.500000 -0.500000
vt 1.500000 1.500000
vt -0.500000 1.500000
vn 0.0000 1.0000 0.0000
usemtl Grass.011
s off
f 9/9/3 10/10/3 12/11/3 11/12/3
o Plane.009_Plane.026
v -20.000000 0.000000 0.000000
v 0.000000 0.000000 0.000000
v -20.000000 0.000000 -20.000000
v 0.000000 0.000000 -20.000000
vt -0.500000 -0.500000
vt 1.500000 -0.500000
vt 1.500000 1.500000
vt -0.500000 1.500000
vn 0.0000 1.0000 0.0000
usemtl Grass.011
s off
f 13/13/4 14/14/4 16/15/4 15/16/4
