# Blender v3.2.0 OBJ File: 'assets.blend'
# www.blender.org
mtllib house.mtl
o House_Plane
v -10.000000 0.000000 10.000000
v 10.000000 0.000000 10.000000
v -10.000000 0.000000 -10.000000
v 10.000000 0.000000 -10.000000
v -5.798492 0.000000 -5.798492
v -5.798492 0.000000 5.798492
v 5.798492 0.000000 5.798492
v 5.798492 0.000000 -5.798492
v -5.798492 7.459356 -5.798492
v -5.798492 7.459356 5.798492
v 5.798492 7.459356 5.798492
v 5.798492 7.459356 -5.798492
v -6.665570 6.686216 -6.714814
v -6.665570 6.686216 6.714814
v 6.665570 6.686216 6.714814
v 6.665570 6.686216 -6.714814
v -6.665570 7.193971 -6.714814
v -6.665570 7.193971 6.714814
v 6.665570 7.193971 6.714814
v 6.665570 7.193971 -6.714814
v -6.665570 12.339481 0.000000
v 6.665570 12.339481 0.000000
v -6.665570 12.847235 0.000000
v 6.665570 12.847235 0.000000
v -5.798492 12.396200 0.000000
v 5.798492 12.396200 0.000000
v -6.012405 -0.071869 4.131948
v -6.012405 4.933538 4.131948
v -6.012405 -0.071869 0.886713
v -6.012405 4.933538 0.886713
v -5.743995 -0.071869 4.131948
v -5.743995 4.933538 4.131948
v -5.743995 -0.071869 0.886713
v -5.743995 4.933538 0.886713
v -6.012405 -0.011460 1.057428
v -6.012405 -0.011460 3.961233
v -6.012405 4.743406 3.961233
v -6.012405 4.743406 1.057428
v -5.876293 -0.011460 1.057428
v -5.876293 -0.011460 3.961233
v -5.876293 4.743406 3.961233
v -5.876293 4.743406 1.057428
vt 1.000000 1.000000
vt 0.000000 1.000000
vt 0.000000 1.000000
vt 1.000000 1.000000
vt 0.000000 0.000000
vt 1.000000 0.000000
vt 1.000000 0.000000
vt 0.000000 0.000000
vt 0.000000 0.000000
vt 0.000000 0.000000
vt 0.000000 0.000000
vt 0.000000 0.000000
vt 0.000000 1.000000
vt 1.000000 1.000000
vt 1.000000 0.000000
vt 0.000000 0.000000
vt 1.000000 0.500000
vt 0.000000 0.500000
vt 0.625000 0.250000
vt 0.375000 0.250000
vt 0.375000 0.250000
vt 0.625000 0.250000
vt 0.625000 0.500000
vt 0.375000 0.500000
vt 0.375000 1.000000
vt 0.625000 1.000000
vt 0.625000 1.000000
vt 0.375000 1.000000
vt 0.375000 0.750000
vt 0.625000 0.750000
vt 0.875000 0.500000
vt 0.875000 0.750000
vt 0.875000 0.500000
vt 0.875000 0.750000
vt 0.375000 0.000000
vt 0.625000 0.000000
vt 0.625000 0.250000
vt 0.375000 0.250000
vt 0.625000 1.000000
vt 0.375000 1.000000
vt 0.875000 0.500000
vt 0.875000 0.750000
vt 0.000000 0.500000
vt 0.000000 1.000000
vt 1.000000 1.000000
vt 1.000000 0.500000
vt 0.000000 0.500000
vt 1.000000 0.500000
vt 1.000000 1.000000
vt 0.000000 1.000000
vt 0.000000 0.000000
vt 1.000000 0.000000
vt 1.000000 0.000000
vt 0.000000 0.000000
vn 0.0000 1.0000 0.0000
vn 0.0000 0.0000 -1.0000
vn 0.0000 0.0000 1.0000
vn 1.0000 0.0000 0.0000
vn -1.0000 0.0000 0.0000
vn 0.0000 -1.0000 0.0000
vn 0.0000 -0.7650 0.6440
vn 0.0000 0.7650 -0.6440
vn 0.0000 0.7650 0.6440
vn 0.0000 -0.7650 -0.6440
usemtl Grass
s off
f 4/1/1 3/2/1 5/3/1 8/4/1
f 1/5/1 2/6/1 7/7/1 6/8/1
f 2/6/1 4/1/1 8/4/1 7/7/1
f 3/2/1 1/5/1 6/8/1 5/3/1
f 35/9/1 36/10/1 40/11/1 39/12/1
usemtl Walls
f 8/4/2 5/3/2 9/13/2 12/14/2
f 6/8/3 7/7/3 11/15/3 10/16/3
f 7/7/4 8/4/4 12/14/4 26/17/4 11/15/4
f 5/3/5 6/8/5 10/16/5 25/18/5 9/13/5
usemtl Door
f 30/19/5 29/20/5 35/21/5 38/22/5
f 29/20/2 30/19/2 34/23/2 33/24/2
f 27/25/5 28/26/5 37/27/5 36/28/5
f 31/29/3 32/30/3 28/26/3 27/25/3
f 34/23/1 30/31/1 28/32/1 32/30/1
f 28/32/5 30/31/5 38/33/5 37/34/5
f 40/35/5 41/36/5 42/37/5 39/38/5
f 38/22/3 35/21/3 39/38/3 42/37/3
f 36/28/2 37/27/2 41/39/2 40/40/2
f 37/34/6 38/33/6 42/41/6 41/42/6
usemtl Roof
f 21/43/7 13/44/7 16/45/7 22/46/7
f 23/47/8 24/48/8 20/49/8 17/50/8
f 16/45/2 13/44/2 17/50/2 20/49/2
f 14/51/3 15/52/3 19/53/3 18/54/3
f 22/46/4 16/45/4 20/49/4 24/48/4
f 21/43/5 14/51/5 18/54/5 23/47/5
f 13/44/5 21/43/5 23/47/5 17/50/5
f 15/52/4 22/46/4 24/48/4 19/53/4
f 18/54/9 19/53/9 24/48/9 23/47/9
f 14/51/10 21/43/10 22/46/10 15/52/10
