# Blender v3.2.0 OBJ File: 'assets.blend'
# www.blender.org
mtllib road.mtl
o Road_Plane.001
v -10.000000 0.000000 5.000000
v 10.000000 0.000000 5.000000
v -10.000000 0.000000 -5.000000
v 10.000000 0.000000 -5.000000
v -9.999999 0.000000 -4.632617
v -9.999999 0.000000 4.632617
v 9.999996 0.000000 4.632617
v 9.999996 0.000000 -4.632617
v -9.999999 0.247769 4.632617
v -10.000000 0.247769 5.000000
v 10.000000 0.247769 5.000000
v 9.999996 0.247769 -4.632617
v 10.000000 0.247769 -5.000000
v -10.000000 0.247769 -5.000000
v -9.999999 0.247769 -4.632617
v 9.999996 0.247769 4.632617
vt 0.778605 1.297674
vt 0.778605 -0.778605
vt 1.771378 -0.778605
vt 1.771378 1.297674
vt 0.356468 -0.786444
vt 0.351372 2.175247
vt 0.223086 2.175247
vt 0.228183 -0.786444
vt 0.522796 -0.786444
vt 0.517700 2.175247
vt 0.479657 2.175248
vt 0.484753 -0.786444
vt 0.560840 -0.786444
vt 0.555743 2.175248
vt 0.517700 2.175247
vt 0.522796 -0.786444
vt 0.484753 -0.786444
vt 0.479657 2.175247
vt 0.351372 2.175247
vt 0.356468 -0.786444
vt 0.228183 -0.786444
vt 0.223086 2.175248
vt 0.094801 2.175248
vt 0.099898 -0.786444
vt 0.099898 -0.786444
vt 0.094801 2.175248
vt -0.033484 2.175248
vt -0.028387 -0.786444
vn 0.0000 1.0000 0.0000
vn 0.0000 0.0000 -1.0000
vn 0.0000 0.0000 1.0000
usemtl Road
s off
f 6/1/1 7/2/1 8/3/1 5/4/1
usemtl Sidewalk
f 7/5/2 6/6/2 9/7/2 16/8/2
f 15/9/1 12/10/1 13/11/1 14/12/1
f 10/13/1 11/14/1 16/15/1 9/16/1
f 5/17/3 8/18/3 12/19/3 15/20/3
f 4/21/2 3/22/2 14/23/2 13/24/2
f 1/25/3 2/26/3 11/27/3 10/28/3
