# Blender v3.2.0 OBJ File: 'assets.blend'
# www.blender.org
mtllib road.mtl
o Road_Plane.001
v -10.000000 0.000000 5.000000
v 10.000000 0.000000 5.000000
v -10.000000 0.000000 -5.000000
v 10.000000 0.000000 -5.000000
v -9.999999 0.000000 -4.417196
v -9.999999 0.000000 4.417196
v 9.999999 0.000000 4.417196
v 9.999999 0.000000 -4.417196
v -9.999999 0.247769 4.417196
v -10.000000 0.247769 5.000000
v 10.000000 0.247769 5.000000
v 9.999999 0.247769 -4.417196
v 10.000000 0.247769 -5.000000
v -10.000000 0.247769 -5.000000
v -9.999999 0.247769 -4.417196
v 9.999999 0.247769 4.417196
vt 0.000000 0.333333
vt 1.000000 0.333333
vt 1.000000 0.666667
vt 0.000000 0.666667
vt 0.000000 0.333333
vt 1.000000 0.333333
vt 0.000000 0.666667
vt 1.000000 0.666667
vt 1.000000 1.000000
vt 0.000000 1.000000
vt 0.000000 0.000000
vt 1.000000 0.000000
vt 0.000000 0.000000
vt 0.000000 0.000000
vt 0.000000 0.000000
vt 0.000000 0.000000
vt 0.000000 0.000000
vt 0.000000 0.000000
vt 0.000000 0.000000
vn 0.0000 1.0000 0.0000
vn 0.0000 0.0000 -1.0000
vn 0.0000 0.0000 1.0000
usemtl Road
s off
f 6/1/1 7/2/1 8/3/1 5/4/1
usemtl Sidewalk
f 7/2/2 6/1/2 9/5/2 16/6/2
f 15/7/1 12/8/1 13/9/1 14/10/1
f 10/11/1 11/12/1 16/6/1 9/5/1
f 5/4/3 8/3/3 12/8/3 15/7/3
f 4/13/2 3/14/2 14/15/2 13/16/2
f 1/17/3 2/18/3 11/19/3 10/11/3
