# Blender v3.2.0 OBJ File: 'assets.blend'
# www.blender.org
mtllib store1.mtl
o Plane.005_Plane.012
v -10.000000 0.000000 10.000000
v 10.000000 0.000000 10.000000
v -10.000000 0.000000 -10.000000
v 10.000000 0.000000 -10.000000
vt -0.500000 -0.500000
vt 1.500000 -0.500000
vt 1.500000 1.500000
vt -0.500000 1.500000
vn 0.0000 1.0000 0.0000
usemtl Grass.003
s off
f 1/1/1 2/2/1 4/3/1 3/4/1
o Cube.003_Cube.008
v 8.709487 0.024079 9.258904
v -9.112850 0.024079 9.258904
v 8.709487 0.024079 -8.709487
v -9.112850 0.024079 -9.112850
v -8.709487 0.024079 -8.709487
v 9.112850 0.024079 9.258904
v -8.709487 0.024079 9.258904
v 9.112850 0.024079 -9.112850
v 8.709487 7.425187 9.258904
v -9.112850 9.222470 9.258904
v 8.709487 7.425187 -8.709487
v -9.112850 7.425187 -9.112850
v -8.709487 7.425187 -8.709487
v 9.112850 7.425187 9.258904
v -8.709487 9.222470 9.258904
v 9.112850 7.425187 -9.112850
v 0.500773 -0.574463 9.536661
v 0.500773 -0.109943 9.750971
v 0.500773 7.201250 -8.855685
v 0.500773 7.416793 -8.707389
v 8.500772 -0.574463 9.536661
v 8.500772 -0.109943 9.750971
v 8.500772 7.201250 -8.855685
v 8.500772 7.416793 -8.707389
v -8.754481 8.670822 9.039016
v -8.754481 9.135342 9.253325
v -8.754481 7.201250 -8.855685
v -8.754481 7.416793 -8.707389
v -0.565001 8.670822 9.039016
v -0.565001 9.135342 9.253325
v -0.565001 7.201250 -8.855685
v -0.565001 7.416793 -8.707389
v -8.253717 -0.269847 6.304812
v -8.253717 2.487998 6.304812
v -8.253717 -0.269847 5.772277
v -8.253717 2.487998 5.772277
v 0.208261 -0.269847 6.304812
v 0.208261 2.487998 6.304812
v 0.208261 -0.269847 5.772277
v 0.208261 2.487998 5.772277
v 0.228599 -0.269847 5.275617
v 0.228599 8.648558 5.275617
v -0.303937 -0.269847 5.275617
v -0.303937 8.648558 5.275617
v 0.228598 -0.269847 -8.083900
v 0.228598 9.638587 -8.083900
v -0.303937 -0.269847 -8.083900
v -0.303937 9.638587 -8.083900
vt 1.186805 -1.000000
vt 1.202929 -0.983907
vt 1.202929 -0.266980
vt 1.186805 -0.266980
vt 1.915404 -0.266980
vt 1.899279 -0.266980
vt 1.899279 -0.983907
vt 1.915404 -1.000000
vt -0.249818 0.799194
vt 0.478781 0.799194
vt 0.462657 0.815319
vt -0.233693 0.815319
vt -0.249818 1.533590
vt -0.233693 1.533590
vt 0.478781 1.533590
vt 0.462657 1.533590
vt -0.978418 -0.100403
vt -0.249818 -0.100403
vt -0.249818 0.795641
vt -0.978418 0.795641
vt -0.267991 0.795638
vt -0.251867 0.795638
vt -0.251867 1.694406
vt -0.267991 1.694406
vt 0.468493 -0.100403
vt 1.186805 -0.100403
vt 1.186805 0.799194
vt 0.468493 0.799194
vt -0.243982 -1.000000
vt 0.490454 -1.000000
vt 0.490454 -0.100403
vt -0.243982 -0.100403
vt -0.978418 -1.000000
vt -0.243982 -1.000000
vt -0.243982 -0.100403
vt -0.978418 -0.100403
vt -0.284116 0.795638
vt -0.267991 0.795638
vt -0.267991 1.694406
vt -0.284116 1.694406
vt 0.490457 -1.000000
vt 1.186805 -1.000000
vt 1.186805 -0.101233
vt 0.490457 -0.101233
vt -0.249818 -0.100403
vt 0.468493 -0.100403
vt 0.468493 0.799194
vt -0.249818 0.799194
vt 1.956835 0.214484
vt 1.915404 0.175179
vt 1.936069 -1.000000
vt 1.956835 -0.982963
vt 1.118403 1.675291
vt 1.118403 1.701916
vt 0.798592 1.701916
vt 0.798592 1.675291
vt 1.915405 0.930464
vt 1.894639 0.947504
vt 1.873974 -0.227678
vt 1.915405 -0.266983
vt 0.798591 0.799194
vt 0.798591 0.855974
vt 0.478780 0.855974
vt 0.478780 0.799194
vt 1.118403 0.799194
vt 0.798591 1.738291
vt 0.478780 1.738291
vt 1.166314 1.119006
vt 1.139692 1.119006
vt 1.139692 0.799194
vt 1.166314 0.799194
vt -0.416074 0.795640
vt -0.392623 0.808740
vt -0.392623 1.578091
vt -0.444352 1.553895
vt -0.284116 1.115452
vt -0.340893 1.115452
vt -0.340893 0.795641
vt -0.284116 0.795641
vt 1.186805 1.103956
vt 1.506615 1.103956
vt 1.506615 1.849444
vt 1.186805 1.849444
vt 1.506617 1.103956
vt 1.826429 1.103956
vt 1.826429 1.844131
vt 1.506617 1.844131
vt -0.298317 1.115452
vt -0.298317 1.450666
vt -0.319606 1.450666
vt -0.319606 1.115452
vt 0.085088 1.533590
vt 0.418975 1.533590
vt 0.418975 1.871869
vt 0.085088 1.871869
vt 1.160981 1.119005
vt 1.160981 1.454220
vt 1.139692 1.454220
vt 1.139692 1.119005
vt -0.249818 1.533590
vt 0.085088 1.533590
vt 0.085088 1.871870
vt -0.249818 1.871870
vt 1.763450 -0.100403
vt 1.763450 0.982620
vt 1.742161 0.982620
vt 1.742161 -0.100403
vt -0.340893 1.453731
vt -0.340893 1.115452
vt -0.319606 1.115452
vt -0.319606 1.453731
vt -0.978418 2.000000
vt -0.978418 0.915978
vt -0.444352 0.795641
vt -0.444352 2.000000
vt 1.742161 -0.100403
vt 1.742161 1.099201
vt 1.720872 1.099201
vt 1.720872 -0.100403
vt 1.720872 1.103956
vt 1.186806 0.983622
vt 1.186806 -0.100403
vt 1.139692 0.799193
vt 1.139692 1.331947
vt 1.118403 1.331947
vt 1.118403 0.799193
vn 0.0000 -1.0000 0.0000
vn 0.0000 1.0000 0.0000
vn 0.0492 0.9939 -0.0983
vn 0.0000 0.0000 -1.0000
vn 0.0000 0.0000 1.0000
vn 1.0000 0.0000 0.0000
vn -1.0000 0.0000 0.0000
vn 0.0000 0.5668 -0.8238
vn 0.0000 -0.4189 0.9080
vn 0.0000 -0.9211 -0.3894
vn 0.0000 0.9260 0.3776
vn 0.0000 -0.9966 0.0818
vn 0.0000 0.9955 -0.0952
vn 0.0000 0.9973 0.0739
usemtl Roof
s off
f 8/5/2 9/6/2 11/7/2 6/8/2
f 10/9/2 5/10/2 7/11/2 12/12/2
f 12/12/2 7/11/2 9/6/2 8/5/2
f 20/13/3 16/14/3 17/15/3 15/16/3
f 18/17/3 20/13/3 15/16/3 13/18/3
f 16/14/4 14/19/4 19/20/4 17/15/4
f 12/21/5 8/22/5 16/23/5 20/24/5
f 5/25/6 10/26/6 18/27/6 13/28/6
f 11/29/7 9/30/7 17/31/7 19/32/7
f 10/33/7 12/34/7 20/35/7 18/36/7
f 8/37/8 6/38/8 14/39/8 16/40/8
f 6/41/6 11/42/6 19/43/6 14/44/6
f 9/45/6 7/46/6 15/47/6 17/48/6
f 7/49/8 5/50/8 13/51/8 15/52/8
f 21/53/8 22/54/8 24/55/8 23/56/8
f 23/57/9 24/58/9 28/59/9 27/60/9
f 27/61/7 28/62/7 26/63/7 25/64/7
f 25/65/10 26/66/10 22/67/10 21/68/10
f 23/57/11 27/60/11 25/65/11 21/69/11
f 28/70/12 24/71/12 22/67/12 26/66/12
f 31/72/9 32/73/9 36/74/9 35/75/9
f 35/76/7 36/77/7 34/78/7 33/79/7
f 33/80/10 34/81/10 30/82/10 29/83/10
f 31/84/13 35/85/13 33/86/13 29/87/13
f 36/88/14 32/89/14 30/90/14 34/91/14
f 37/92/8 38/93/8 40/94/8 39/95/8
f 39/96/5 40/97/5 44/98/5 43/99/5
f 43/100/7 44/101/7 42/102/7 41/103/7
f 41/104/6 42/105/6 38/106/6 37/107/6
f 45/108/6 46/109/6 48/110/6 47/111/6
f 44/112/3 40/113/3 38/114/3 42/115/3
f 47/116/8 48/117/8 52/118/8 51/119/8
f 51/120/5 52/121/5 50/122/5 49/123/5
f 49/123/7 50/124/7 46/125/7 45/126/7
f 52/127/15 48/128/15 46/129/15 50/130/15
